<?xml version="1.0" encoding="UTF-8" standalone="no"?>
<svg
   xmlns:dc="http://purl.org/dc/elements/1.1/"
   xmlns:cc="http://creativecommons.org/ns#"
   xmlns:rdf="http://www.w3.org/1999/02/22-rdf-syntax-ns#"
   xmlns:svg="http://www.w3.org/2000/svg"
   xmlns="http://www.w3.org/2000/svg"
   xmlns:xlink="http://www.w3.org/1999/xlink"
   xmlns:sodipodi="http://sodipodi.sourceforge.net/DTD/sodipodi-0.dtd"
   xmlns:inkscape="http://www.inkscape.org/namespaces/inkscape"
   width="400"
   height="300"
   version="1.1"
   id="svg51"
   sodipodi:docname="python.svg"
   inkscape:version="0.92.5 (2060ec1f9f, 2020-04-08)"
   inkscape:export-filename="/var/www/wallacemaxters/wallacemaxters.github.io/uploads/covers/python.png"
   inkscape:export-xdpi="120"
   inkscape:export-ydpi="120">
  <metadata
     id="metadata55">
    <rdf:RDF>
      <cc:Work
         rdf:about="">
        <dc:format>image/svg+xml</dc:format>
        <dc:type
           rdf:resource="http://purl.org/dc/dcmitype/StillImage" />
        <dc:title></dc:title>
      </cc:Work>
    </rdf:RDF>
  </metadata>
  <sodipodi:namedview
     pagecolor="#ffffff"
     bordercolor="#666666"
     borderopacity="1"
     objecttolerance="10"
     gridtolerance="10"
     guidetolerance="10"
     inkscape:pageopacity="0"
     inkscape:pageshadow="2"
     inkscape:window-width="1920"
     inkscape:window-height="1043"
     id="namedview53"
     showgrid="false"
     inkscape:zoom="0.61458333"
     inkscape:cx="-25.39455"
     inkscape:cy="142.19099"
     inkscape:window-x="0"
     inkscape:window-y="0"
     inkscape:window-maximized="1"
     inkscape:current-layer="svg51" />
  <defs
     id="defs27">
    <linearGradient
       id="lg1">
      <stop
         stop-color="#3778ae"
         offset="0"
         id="stop2" />
      <stop
         stop-color="#366c99"
         offset="1"
         id="stop4" />
    </linearGradient>
    <linearGradient
       id="lg2">
      <stop
         stop-color="#fff"
         offset="0"
         id="stop7" />
      <stop
         stop-color="#fff"
         stop-opacity="0.165"
         offset="1"
         id="stop9" />
    </linearGradient>
    <linearGradient
       id="lg3">
      <stop
         stop-color="#ffe253"
         offset="0"
         id="stop12" />
      <stop
         stop-color="#ffca1c"
         offset="1"
         id="stop14" />
    </linearGradient>
    <linearGradient
       id="lg4">
      <stop
         stop-color="#000"
         offset="0"
         id="stop17" />
      <stop
         stop-color="#000"
         stop-opacity="0"
         offset="1"
         id="stop19" />
    </linearGradient>
    <linearGradient
       x1="94.693001"
       y1="112.511"
       x2="94.693001"
       y2="64.053001"
       id="lg5"
       xlink:href="#lg2"
       gradientUnits="userSpaceOnUse"
       gradientTransform="matrix(2.08892,0,0,2.08892,-119.27089,-91.491135)" />
    <linearGradient
       x1="59.728001"
       y1="102"
       x2="142.62"
       y2="102"
       id="lg6"
       xlink:href="#lg1"
       gradientUnits="userSpaceOnUse"
       gradientTransform="matrix(2.08892,0,0,2.08892,-119.27089,-91.491135)" />
    <linearGradient
       x1="94.693001"
       y1="112.511"
       x2="94.693001"
       y2="64.053001"
       id="lg7"
       xlink:href="#lg2"
       gradientUnits="userSpaceOnUse"
       gradientTransform="matrix(2.08892,0,0,2.08892,-53.8514,-23.804327)" />
    <linearGradient
       x1="119.191"
       y1="89.129997"
       x2="116.965"
       y2="169.27901"
       id="lg8"
       xlink:href="#lg3"
       gradientUnits="userSpaceOnUse"
       gradientTransform="matrix(2.08892,0,0,2.08892,-113.42817,-83.138485)" />
    <radialGradient
       cx="15.115"
       cy="63.965"
       r="12.289"
       fx="15.115"
       fy="63.965"
       id="rg1"
       xlink:href="#lg4"
       gradientUnits="userSpaceOnUse"
       gradientTransform="matrix(9.4447015,0,0,3.25697,-17.766767,51.641836)" />
  </defs>
  <g
     id="g873"
     transform="translate(75.000001,-14.776888)">
    <path
       style="fill:url(#rg1);stroke-width:5.90293837"
       inkscape:connector-curvature="0"
       id="path29"
       d="m 241.05214,259.97513 a 116.0624,40.024879 0 0 1 -232.1247871,0 116.0624,40.024879 0 1 1 232.1247871,0 z" />
    <path
       style="fill:url(#lg8);stroke-width:5.90293837"
       inkscape:connector-curvature="0"
       id="path31"
       d="m 184.49373,244.92617 c 0,16.12625 -13.99587,24.29414 -28.2007,28.36775 -21.36982,6.14143 -38.51963,5.20108 -56.379558,0 -14.915543,-4.34574 -28.200693,-13.22375 -28.200693,-28.36775 v -53.20436 c 0,-15.31222 12.762743,-28.38841 28.200693,-28.38841 l 55.478178,-3.60728 c 18.77961,0 31.053,-11.72206 31.053,-30.96092 l 5.10899,-25.71851 h 21.1402 c 16.41842,0 24.14832,12.1996 28.20069,28.36716 5.64026,22.45655 5.88995,39.25159 0,56.75675 -5.70283,17.00342 -11.80587,28.36717 -28.20069,28.36717 h -28.20011 -56.38014 v -0.11807 c 48.65437,0.11807 56.38014,-19.5765 56.38014,28.49998 z" />
    <path
       style="fill:#ffffff;stroke-width:5.90293837"
       inkscape:connector-curvature="0"
       id="path33"
       d="m 149.25319,248.45672 c 0,-5.86988 4.74183,-10.63296 10.5698,-10.63296 5.90293,0 10.5698,4.76308 10.5698,10.63296 0,5.89055 -4.72058,10.65303 -10.5698,10.65303 -5.82797,0 -10.5698,-4.76248 -10.5698,-10.65303 z" />
    <path
       style="opacity:0.83699999;fill:url(#lg7);stroke-width:5.90293837"
       inkscape:connector-curvature="0"
       id="path35"
       d="m 191.49344,103.04373 v 24.94877 c -20.13552,35.39933 -58.38715,35.4684 -90.47553,35.4684 l -11.906224,1.21128 C 72.381579,179.0541 71.849136,202.134 71.861529,222.37695 108.75608,181.20867 148.11215,178.10255 167.7465,178.1911 c 39.18194,0.17118 57.63511,-9.46183 76.34801,-30.65928 -0.0945,-0.41321 0.0944,-0.77919 0,-1.20243 -0.72133,-4.72235 -1.98456,-9.76582 -3.30623,-15.02888 -1.89957,-7.57878 -4.3847,-14.25028 -8.41582,-19.23709 -0.0944,-0.0944 -0.22431,-0.2007 -0.30105,-0.29514 0,0 -0.24792,0 -0.29515,0 -0.13576,-0.16529 -0.16527,-0.44272 -0.29515,-0.59679 -0.27743,-0.2007 -0.30695,-0.41321 -0.59619,-0.5962 -0.0944,-0.0944 -0.23021,0.0945 -0.29515,0 -4.27431,-2.77025 -9.46595,-4.83745 -14.72901,-5.71168 -4.77016,-0.78863 -9.55804,-1.38955 -14.42796,-1.80335 h -3.00578 -6.91293 z" />
    <path
       style="fill:none;stroke:#bb9400;stroke-width:9.62178993"
       inkscape:connector-curvature="0"
       id="path37"
       d="m 187.31887,244.92322 c 0,16.12683 -16.8216,24.2965 -31.02584,28.36953 -21.36864,6.13905 -38.51667,5.20048 -56.378965,0 C 84.997336,268.94818 71.574057,260.07017 71.550443,244.92912 L 71.456,190.27972 C 71.39697,172.13999 85.044565,160.706 100.07935,160.76503 l 49.97841,0.0885 c 19.18455,0 37.83783,-19.4797 37.7847,-38.66425 v -19.10781 h 24.85138 c 16.41842,0 24.14301,12.20138 28.19833,28.36953 5.64321,22.45477 5.90294,39.24863 0,56.75675 -5.70224,17.00046 -11.80588,30.38596 -28.19833,30.38833 H 187.3112 128.10473 v -0.11806 l 59.20647,0.2007 z" />
    <path
       style="opacity:0.38399999;fill:#ffffff;stroke-width:5.90293837"
       inkscape:connector-curvature="0"
       id="path39"
       d="m 192.66871,107.85345 v 14.1275 c 0,21.9855 -20.63962,43.5383 -44.1593,43.5383 H 99.815486 c -16.826914,0 -23.720364,12.73205 -23.63655,26.19665 l 0.330571,53.2026 c 0.059,6.16621 2.361172,10.76401 6.776572,14.72842 4.415393,3.96383 11.053843,6.98318 18.035241,9.01792 17.21533,5.01278 32.91479,5.91593 53.50306,0 6.68626,-1.91727 15.58021,-5.54935 20.05582,-9.42345 4.47501,-3.87528 7.71927,-7.65079 7.71927,-14.32289 v -21.42648 h -59.33633 v -9.91399 l 89.57296,0.29514 c 7.08824,0 10.55445,-2.78854 14.07496,-6.86688 3.52051,-4.07893 6.58119,-12.08273 9.37033,-20.40056 5.58182,-16.5849 5.51097,-32.1657 0,-54.10515 -1.91964,-7.66084 -4.70819,-13.84889 -8.41583,-18.03466 -3.70704,-4.18577 -8.01028,-6.61247 -15.02946,-6.61247 z m 9.61824,9.61825 h 10.54679 c 3.0707,0 7.07939,2.47569 7.81549,3.30682 2.13981,2.41608 4.60428,7.31138 6.3126,14.12691 5.25066,20.90585 5.26247,33.95076 0.29514,48.69393 -2.66636,7.95126 -5.43366,15.43147 -7.51385,17.70882 -1.87949,2.00405 -5.90293,3.00637 -6.91411,3.00637 L 184.5746,204.0135 h -70.93738 v 29.15107 h 59.33633 v 11.80588 c 0,4.29143 -5.74533,6.95897 -6.73406,7.8149 -2.87592,2.49045 -7.9737,4.93427 -13.82646,6.61247 -19.02517,5.46848 -32.46616,4.63912 -48.39465,0 -6.027494,-1.75612 -11.251594,-4.33217 -14.207787,-6.84446 -2.956186,-2.51229 -3.138,-4.56946 -3.68225,-7.58528 l -0.330564,-53.20259 c -0.07674,-11.9381 3.811528,-16.57781 14.0183,-16.57781 H 148.51 c 29.06194,0 53.77754,-25.67897 53.77754,-53.15714 5e-4,-1.51942 -5e-4,-3.03943 -5e-4,-4.55884 z" />
    <path
       style="fill:url(#lg6);stroke-width:5.90293837"
       inkscape:connector-curvature="0"
       id="path41"
       d="m 65.870049,66.305621 c 0,-16.126239 4.32331,-24.899774 28.199516,-29.077874 16.210645,-2.841085 36.995485,-3.19585 56.380735,0 15.31164,2.527635 28.2007,13.933295 28.2007,29.077874 v 53.205549 c 0,15.60382 -12.51305,28.38782 -28.2007,28.38782 l -51.131843,2.82632 c -19.133785,0 -38.894458,16.71772 -38.894458,35.16381 l -1.615045,22.2954 H 39.423703 c -16.397772,0 -25.944004,-11.823 -29.9544608,-28.36716 -5.4106327,-22.22516 -5.1804182,-35.46958 0,-56.75499 C 13.960198,104.49114 28.311422,94.694036 43.115991,94.694036 h 21.160853 c 0,0 52.800606,-0.206605 0,-0.188895 v -28.19893 0 z" />
    <path
       style="fill:#ffffff;stroke-width:5.90293837"
       inkscape:connector-curvature="0"
       id="path43"
       d="m 79.969807,62.775071 c 0,-5.902934 4.72235,-10.653619 10.5698,-10.653619 5.827972,0 10.570393,4.76249 10.570393,10.653619 0,5.869885 -4.742421,10.632375 -10.570393,10.632375 -5.848628,0 -10.5698,-4.76249 -10.5698,-10.632375 z" />
    <path
       style="opacity:0.37700004;fill:url(#lg5);stroke-width:5.90293837"
       inkscape:connector-curvature="0"
       id="path45"
       d="m 117.41805,34.876017 c -8.34321,0.20188 -16.3535,1.161695 -23.445293,2.404265 -23.876203,4.1781 -27.953363,13.030145 -27.953363,29.156384 l -1.74255,28.25737 -19.599525,-0.002 c -16.397772,0 -30.67639,9.684354 -35.1673461,28.253824 C 6.461105,135.47484 5.080408,145.28376 5.6016375,155.70953 42.745287,113.61036 82.60075,110.53375 102.38917,110.62288 c 39.18134,0.17119 57.63452,-9.46182 76.34742,-30.659264 v -13.526 c 0,-15.143989 -12.94278,-26.628154 -28.25441,-29.155794 -10.90391,-1.799215 -22.33731,-2.665765 -33.06413,-2.406035 z" />
    <path
       style="fill:none;stroke:#274e70;stroke-width:9.62178993"
       inkscape:connector-curvature="0"
       id="path47"
       d="m 93.680565,38.604312 c 21.369225,-6.14142 38.519625,-5.20108 56.378965,0 14.91554,4.34515 28.20837,13.22258 28.20069,28.367749 v 57.444449 c 0,8.06459 -11.65593,26.73618 -28.17236,26.73618 H 97.558793 c -14.747307,0 -35.399924,16.06602 -35.399924,35.30547 v 22.39398 H 37.3075 c -16.419023,0 -24.148331,-12.1996 -28.2006978,-28.36834 -5.6402577,-22.45537 -5.9029385,-39.25041 0,-56.75557 C 14.809631,106.72422 20.912679,93.341671 37.3075,93.341671 h 25.373779 59.206471 v 0.11216 l -59.206471,-0.2007 0.11216,-28.766795 C 62.639959,52.701117 77.046672,43.516737 93.679386,38.604902 Z" />
    <path
       style="opacity:0.16499999;fill:#ffffff;stroke-width:5.90293837"
       inkscape:connector-curvature="0"
       id="path49"
       d="m 57.304884,204.0442 v -16.50462 c 0,-21.98608 20.042252,-41.48998 41.592695,-41.48998 h 51.260531 c 12.72024,0 23.75342,-13.22908 23.63654,-25.86727 l -0.4923,-53.203184 c -0.0573,-6.16562 -2.19708,-10.764009 -6.61306,-14.728424 -4.41481,-3.96441 -11.05385,-6.983765 -18.03466,-9.017325 -17.21651,-5.013955 -32.91597,-5.916515 -53.503644,0 -6.685671,1.917275 -15.5814,5.54876 -20.055829,9.42345 -4.475603,3.87469 -7.718678,7.650209 -7.718678,14.322299 v 21.42649 h 59.335741 v 9.9193 l -89.572954,-0.30105 c -7.083526,0 -10.554454,2.788544 -14.074966,6.867474 -3.520513,4.07775 -6.581186,12.08154 -9.370325,20.39996 -5.5818178,16.5849 -5.5103928,32.16512 0,54.10457 1.919636,7.66083 4.708184,13.84888 8.41641,18.03466 3.707045,4.18636 8.010288,6.61306 15.028881,6.61306 h 20.165618 z m -9.618838,-9.61884 h -10.54678 c -3.069528,0 -7.083526,-2.47569 -7.814899,-3.30565 -2.140406,-2.41666 -4.604883,-7.31256 -6.313193,-14.12809 -5.250664,-20.90526 -5.26188,-33.94957 -0.298099,-48.69393 2.666357,-7.95008 5.433655,-15.43087 7.514441,-17.6492 1.879496,-2.00286 5.849221,-3.00577 6.913521,-3.00577 l 99.191803,0.30105 V 78.786791 H 76.997086 V 66.980916 c 0,-4.291435 5.744743,-6.958974 6.733486,-7.814899 2.8765,-2.49045 7.974278,-4.934265 13.827043,-6.61129 19.024575,-5.467305 32.466155,-4.63853 48.394055,0 6.02808,1.756125 11.25159,4.332165 14.12692,6.91352 1.02297,0.798074 1.56191,1.754944 2.40721,2.704724 1.17292,1.399 0.91614,3.247975 1.18709,4.809125 v 53.203184 c 0,7.29426 -6.23646,16.24902 -13.52541,16.24902 H 98.886957 c -27.092721,0 -51.211536,23.62887 -51.211536,51.10823 0,2.28739 0,6.88283 0,6.88283 z" />
  </g>
</svg>
