<svg xmlns="http://www.w3.org/2000/svg" width="100" viewBox="0 0 26.316 46" height="46" fill="#41b6b0">
	<defs>
		 <style>
            #default{
                fill: #41b6b0;
            }
            #white {
                fill: #fff;
            }

            use:not(:target){
            	display: none;
            }
        </style>
		<g id='logo'>
			<path d="M31.374 4.414c-.757-1.788-8.563-4.677-11.143 6.844L6.61 21.474l-20.373 12.198 1.02.353 2.708-.79-4.3 2.54 1.41.487L1.66 31.929s6.578.897 11.705.9l-.725 1.45c-.244.49 1.82 5.377 2.583 7.703l-3.858.587c-.458.07-.263.764.193.696l4.06-.617 4.06.617c.457.068.65-.627.193-.696l-3.89-.593-.177-.6-.69-2.337-1.291-4.368-.01-.026c.156-.313 5.077-2.555 5.077-2.555h-.002c17.878-6.436 8.032-21.19 11.8-23.48 1.584-.963 7.017-2.407 7.017-2.407 0-1.644-6.33-1.79-6.33-1.79zM-14.966 43.722v-2.768L-31.541 23.15v-.3l16.575-17.804V2.278l-18.178 19.488v2.468zM41.282 43.722v-2.768L57.844 23.15v-.3L41.282 5.046V2.278L59.46 21.766v2.468z"/>
            <circle r="1" cx="27.6" cy='5' fill='black'>
                <animate attributeName="r" values="1;1;1;1;1;1;0.5;1;0.5;1" dur="5s" repeatCount='indefinite'></animate>
            </circle>
		</g>
	</defs>
	<use href="#logo" id="default" />
	<use href="#logo" id="white" />
</svg>