<svg xmlns="http://www.w3.org/2000/svg" width="100mm" height="100mm" viewBox="0 0 100 100"><path d="M80.034 9.237c-1.154-2.729-13.062-7.135-16.997 10.44L42.262 35.26 11.184 53.867l1.557.539 4.129-1.205-6.557 3.873 2.15.744 22.244-6.61s10.035 1.37 17.855 1.376l-1.106 2.212c-.372.745 2.776 8.2 3.939 11.749l-5.883.894c-.7.106-.401 1.167.293 1.062l6.194-.94 6.194.94c.695.105.994-.956.293-1.062l-5.933-.902-.271-.916-1.053-3.566-1.968-6.663-.015-.04c.238-.477 7.745-3.898 7.745-3.898h-.003c27.27-9.817 12.25-32.321 17.997-35.816 2.417-1.47 10.703-3.673 10.703-3.673 0-2.507-9.654-2.728-9.654-2.728zM49.046 74.465L39.61 83.9l9.436 9.436 2.202-2.202-7.234-7.234 7.234-7.234zm12.58 0l-2.201 2.201 7.234 7.234-7.234 7.234 2.202 2.202 9.435-9.436z" class="fill c1" fill="#1debcc"/></svg>