<svg xmlns="http://www.w3.org/2000/svg" width="380" height="380" viewBox="0 0 100.542 100.542">
  <defs>
    <path id="a" d="M-82.714 84.365h63.55v55.45h-63.55z"/>
  </defs>
  <path d="M69.952 30.195c-.817-1.932-9.25-5.053-12.037 7.393L43.203 48.624 21.195 61.8l1.103.382 2.924-.853-4.644 2.742 1.523.527 15.752-4.68s7.106.97 12.644.974l-.783 1.566c-.263.528 1.966 5.807 2.79 8.32l-4.167.634c-.495.075-.284.826.208.752l4.386-.666 4.387.666c.492.074.703-.677.207-.752l-4.201-.64-.192-.648-.746-2.525-1.394-4.719-.01-.028c.168-.338 5.484-2.76 5.484-2.76h-.002C75.776 53.14 65.14 37.203 69.21 34.728c1.712-1.04 7.58-2.6 7.58-2.6 0-1.776-6.837-1.933-6.837-1.933z" fill="#41b6b0"/>
  <g aria-label="&lt;&gt;" style="line-height:1.25;-inkscape-font-specification:'LKLUG Bold';white-space:pre;shape-inside:url(#a)" transform="matrix(13.2234 0 0 20.20277 1060.126 -1770.24)" font-weight="200" font-size="10.583" font-family="Source Code Pro" letter-spacing="0" word-spacing="0" fill="#41b6b0">
    <path d="M-78.666 91.22v-.148l-1.354-.952v-.016l1.354-.952v-.148l-1.485 1.042v.132z" style="line-height:1.25;-inkscape-font-specification:'Source Code Pro Ultra-Light';white-space:pre;shape-inside:url(#a)"/>
    <path d="M-74.071 91.22v-.148l1.353-.952v-.016l-1.353-.952v-.148l1.485 1.042v.132z" style="-inkscape-font-specification:'Source Code Pro Ultra-Light'"/>
  </g>
</svg>