<?xml version="1.0" encoding="UTF-8" standalone="no"?>
<svg
   xmlns:dc="http://purl.org/dc/elements/1.1/"
   xmlns:cc="http://creativecommons.org/ns#"
   xmlns:rdf="http://www.w3.org/1999/02/22-rdf-syntax-ns#"
   xmlns:svg="http://www.w3.org/2000/svg"
   xmlns="http://www.w3.org/2000/svg"
   xmlns:sodipodi="http://sodipodi.sourceforge.net/DTD/sodipodi-0.dtd"
   xmlns:inkscape="http://www.inkscape.org/namespaces/inkscape"
   width="380"
   height="380"
   viewBox="0 0 100.54166 100.54166"
   version="1.1"
   id="svg90"
   sodipodi:docname="logo.svg"
   inkscape:version="1.0.2 (1.0.2+r75+1)"
   inkscape:export-filename="/var/www/wallacemaxters/wallacemaxters.github.io/assets/img/logo.png"
   inkscape:export-xdpi="76.800003"
   inkscape:export-ydpi="76.800003">
  <metadata
     id="metadata96">
    <rdf:RDF>
      <cc:Work
         rdf:about="">
        <dc:format>image/svg+xml</dc:format>
        <dc:type
           rdf:resource="http://purl.org/dc/dcmitype/StillImage" />
        <dc:title></dc:title>
      </cc:Work>
    </rdf:RDF>
  </metadata>
  <defs
     id="defs94">
    <rect
       x="-82.713554"
       y="84.365456"
       width="63.550449"
       height="55.450069"
       id="rect31" />
    <rect
       x="3.0597739"
       y="29.243877"
       width="21.437298"
       height="16.453278"
       id="rect25" />
    <rect
       x="161.50974"
       y="27.645615"
       width="32.880955"
       height="29.267057"
       id="rect106" />
  </defs>
  <sodipodi:namedview
     pagecolor="#ffffff"
     bordercolor="#666666"
     borderopacity="1"
     objecttolerance="10"
     gridtolerance="10"
     guidetolerance="10"
     inkscape:pageopacity="0"
     inkscape:pageshadow="2"
     inkscape:window-width="1320"
     inkscape:window-height="704"
     id="namedview92"
     showgrid="false"
     inkscape:zoom="0.5"
     inkscape:cx="-205.97518"
     inkscape:cy="-97.713148"
     inkscape:window-x="46"
     inkscape:window-y="27"
     inkscape:window-maximized="1"
     inkscape:current-layer="svg90"
     inkscape:document-rotation="0"
     units="px" />
  <path
     d="m 69.951824,30.195203 c -0.817216,-1.932568 -9.249984,-5.05272 -12.036593,7.393189 l -14.71202,11.035253 -22.008191,13.17673 1.102605,0.381698 2.923992,-0.853332 -4.643404,2.742703 1.522543,0.526871 15.752308,-4.680937 c 0,0 7.106383,0.970179 12.644193,0.974428 l -0.783224,1.56645 c -0.263436,0.527579 1.965851,5.80691 2.789441,8.320169 L 48.33737,71.41152 c -0.495712,0.07506 -0.283972,0.826423 0.207491,0.752066 l 4.386342,-0.66567 4.386342,0.66567 c 0.492171,0.07436 0.70391,-0.677001 0.20749,-0.752066 l -4.201512,-0.63876 -0.191911,-0.648674 -0.745692,-2.525298 -1.393659,-4.718469 -0.01062,-0.02833 c 0.168542,-0.337793 5.484697,-2.760407 5.484697,-2.760407 h -0.0021 C 75.775756,53.139577 65.139196,37.203149 69.20899,34.72813 c 1.711623,-1.040995 7.579435,-2.601071 7.579435,-2.601071 0,-1.775357 -6.836575,-1.93186 -6.836575,-1.93186 z"
     id="path88"
     style="fill:#41b6b0;fill-opacity:1;stroke-width:0.70816" />
  <g
     aria-label="&lt;&gt;"
     id="text29"
     style="font-style:normal;font-variant:normal;font-weight:bold;font-stretch:normal;font-size:10.5833px;line-height:1.25;font-family:LKLUG;-inkscape-font-specification:'LKLUG Bold';letter-spacing:0px;word-spacing:0px;white-space:pre;shape-inside:url(#rect31);fill:#41b6b0;fill-opacity:1;stroke:none"
     transform="matrix(13.223397,0,0,20.202775,1060.126,-1770.2409)">
    <path
       d="m -78.666231,91.219591 v -0.147683 l -1.353766,-0.951739 v -0.01641 l 1.353766,-0.951739 v -0.147682 l -1.485041,1.04199 v 0.131275 z"
       style="font-style:normal;font-variant:normal;font-weight:200;font-stretch:normal;font-size:10.5833px;line-height:1.25;font-family:'Source Code Pro';-inkscape-font-specification:'Source Code Pro Ultra-Light';letter-spacing:0px;word-spacing:0px;white-space:pre;shape-inside:url(#rect31);fill:#41b6b0;fill-opacity:1;stroke:none;stroke-width:0.387622"
       id="path37-6" />
    <path
       d="m -74.071408,91.219591 v -0.147683 l 1.353766,-0.951739 v -0.01641 l -1.353766,-0.951739 v -0.147682 l 1.485041,1.04199 v 0.131275 z"
       style="font-style:normal;font-variant:normal;font-weight:200;font-stretch:normal;font-family:'Source Code Pro';-inkscape-font-specification:'Source Code Pro Ultra-Light';fill:#41b6b0;fill-opacity:1;stroke-width:0.387622"
       id="path37" />
  </g>
</svg>
