<svg xmlns="http://www.w3.org/2000/svg" width="380" height="380" viewBox="0 0 100.542 100.542"><defs><path id="a" d="M-82.714 84.365h63.55v55.45h-63.55z"/></defs><path d="M68.487 31.685c-.757-1.788-8.563-4.677-11.143 6.844l-13.62 10.216-20.373 12.198 1.021.353 2.707-.79-4.299 2.54 1.41.487L38.772 59.2s6.578.897 11.705.901l-.725 1.45c-.244.489 1.82 5.376 2.583 7.702l-3.858.587c-.458.07-.263.764.193.696l4.06-.617 4.061.617c.456.068.65-.627.192-.696l-3.89-.593-.177-.6-.69-2.337-1.291-4.368-.01-.026c.156-.313 5.077-2.555 5.077-2.555H56c17.878-6.436 8.032-21.19 11.8-23.48 1.584-.963 7.017-2.407 7.017-2.407 0-1.644-6.33-1.79-6.33-1.79z" fill="#41b6b0"/><g transform="matrix(12.24117 0 0 18.70212 985.111 -1635.014)" fill="#41b6b0"><path d="M-78.666 91.22v-.148l-1.354-.952v-.016l1.354-.952v-.148l-1.485 1.042v.132z" /><path d="M-74.071 91.22v-.148l1.353-.952v-.016l-1.353-.952v-.148l1.485 1.042v.132z" /></g></svg>