<svg xmlns="http://www.w3.org/2000/svg" width="1200" height="900" viewBox="0 0 317.5 238.125"><g fill="#fff"><path d="M181.152 81.505a1.51 1.51 0 01.053.39v20.488a1.494 1.494 0 01-.751 1.296l-17.196 9.9v19.624c0 .534-.284 1.027-.747 1.296l-35.895 20.663c-.082.05-.171.076-.26.108-.035.014-.067.035-.102.042a1.503 1.503 0 01-.765 0c-.041-.014-.079-.035-.118-.049-.082-.028-.168-.057-.247-.101l-35.887-20.663a1.496 1.496 0 01-.75-1.296V71.739c0-.134.018-.265.052-.392.011-.042.037-.082.052-.125.028-.078.054-.159.095-.231.028-.05.07-.088.103-.133.043-.057.082-.121.132-.174.044-.042.1-.075.148-.112.054-.042.103-.093.164-.13h.002l17.945-10.33a1.498 1.498 0 011.494 0l17.944 10.33h.004c.06.036.11.085.164.128.049.035.103.071.146.112.052.057.09.116.134.176.032.042.075.084.101.133.043.074.067.153.097.231.015.042.041.082.052.127a1.51 1.51 0 01.053.39v38.39l14.953-8.61V81.894c0-.13.018-.264.052-.388.013-.043.037-.084.052-.128.03-.078.056-.158.097-.231.029-.05.07-.088.101-.133.045-.056.082-.121.135-.173.043-.043.097-.075.145-.112.056-.043.105-.094.165-.13h.002l17.946-10.331a1.496 1.496 0 011.494 0l17.944 10.331c.064.036.112.084.168.127.047.036.101.07.144.113.052.056.09.115.135.175.034.043.074.084.1.133.043.073.068.153.098.231.017.043.04.082.052.128zm-2.939 20.014V84.482l-6.28 3.615-8.675 4.995v17.037l14.957-8.61zm-17.944 30.82V115.29l-8.534 4.874-24.368 13.907v17.209zm-68.79-58.013v58.012l32.897 18.94v-17.205l-17.187-9.727-.005-.003-.008-.004c-.058-.035-.106-.082-.16-.124-.047-.035-.101-.07-.142-.108l-.004-.006c-.049-.05-.082-.104-.123-.156-.038-.05-.083-.094-.112-.146l-.002-.005c-.034-.057-.055-.124-.079-.187-.024-.057-.056-.108-.07-.168v-.002c-.02-.071-.023-.146-.03-.219-.008-.056-.023-.112-.023-.168V82.936l-8.673-4.997-6.28-3.612zm16.45-11.193L92.978 71.74l14.947 8.607 14.95-8.608-14.95-8.605zm7.775 53.71l8.674-4.993V74.326l-6.28 3.615-8.675 4.995v37.524zm46.06-43.554l-14.949 8.607 14.95 8.606 14.947-8.608zm-1.495 19.803l-8.676-4.995-6.28-3.615v17.037l8.674 4.993 6.282 3.617zm-34.4 38.393l21.928-12.518 10.961-6.256-14.938-8.6-17.2 9.902-15.676 9.024z" fill-rule="evenodd"/><path d="M208.05 144.3v3.962c0 3.103-7.502 5.62-16.117 5.62-8.612 0-16.116-2.517-16.116-5.62v-3.961c3.897 2.801 11.29 3.636 16.116 3.636 4.845 0 12.23-.843 16.117-3.636zm-16.117-5.493c-4.844 0-12.229-.843-16.116-3.636v3.923c0 3.104 7.504 5.62 16.116 5.62 8.615 0 16.117-2.518 16.117-5.62v-3.923c-3.897 2.801-11.29 3.636-16.117 3.636zm0-23.604c-8.612 0-16.116 2.517-16.116 5.621 0 3.104 7.504 5.62 16.116 5.62 8.615 0 16.117-2.517 16.117-5.62 0-3.104-7.502-5.621-16.117-5.621zm0 14.464c-4.844 0-12.229-.843-16.116-3.636v3.933c0 3.104 7.504 5.62 16.116 5.62 8.615 0 16.117-2.518 16.117-5.62v-3.933c-3.897 2.801-11.29 3.636-16.117 3.636zM212.775 151.94c-2.573 0-5.146.98-7.104 2.937-3.916 3.916-3.916 10.292 0 14.208a10.013 10.013 0 007.117 2.937c2.593 0 5.16-.979 7.117-2.937 3.89-3.916 3.89-10.292-.026-14.208a10.015 10.015 0 00-7.104-2.937zm-.013 1.562c2.17 0 4.339.82 5.98 2.486 3.307 3.308 3.306 8.679.026 11.986-3.308 3.307-8.679 3.307-11.986 0-3.308-3.307-3.308-8.678 0-11.986a8.459 8.459 0 015.98-2.486zm0 1.587a6.724 6.724 0 00-4.842 2.037c-1.244 1.244-1.932 2.858-2.011 4.604-.027.45.318.794.767.82h.027a.81.81 0 00.793-.767 5.368 5.368 0 011.535-3.546 5.248 5.248 0 013.73-1.56.78.78 0 00.794-.794.78.78 0 00-.793-.794zm-4.578 9.975a.794.794 0 00-.794.793.794.794 0 00.794.794.794.794 0 00.794-.794.794.794 0 00-.794-.793zm12.796 4.365c-.201 0-.4.08-.545.239-.318.317-.318.82 0 1.11l.661.662a2.276 2.276 0 00-.238 1.032c0 .635.238 1.244.688 1.693l3.387 3.334a2.386 2.386 0 001.692.714c.609 0 1.218-.238 1.694-.688a2.38 2.38 0 000-3.36l-3.386-3.386a2.38 2.38 0 00-1.694-.688c-.37 0-.714.08-1.032.238l-.661-.661a.8.8 0 00-.566-.239zm2.26 2.223a.72.72 0 01.555.238l3.36 3.36c.317.318.317.82 0 1.111-.318.318-.82.318-1.111 0l-3.36-3.333a.82.82 0 01-.239-.582.72.72 0 01.239-.556.761.761 0 01.555-.238z"/></g></svg>